<?xml version="1.0" encoding="utf-8"?>
<!-- Generator: Adobe Illustrator 25.0.0, SVG Export Plug-In . SVG Version: 6.00 Build 0)  -->
<svg version="1.1" id="Layer_1" xmlns="http://www.w3.org/2000/svg" xmlns:xlink="http://www.w3.org/1999/xlink" x="0px" y="0px"
	 viewBox="0 0 377.69 370.35" style="enable-background:new 0 0 377.69 370.35;" xml:space="preserve">
<style type="text/css">
	.st0{fill:#BBB189;}
</style>
<path class="st0" d="M314.53,161.9c0-96.53-51.36-130.07-99.99-137.95c-0.9-0.15-1.51-0.93-1.51-1.83c0-0.01,0-0.01,0-0.02
	c0-12.3-10.9-22.1-24.2-22.1c-13.3,0-23.8,9.8-23.8,22.1c0,0.03,0,0.05,0,0.08c0,0.88-0.64,1.63-1.51,1.77
	C114.78,31.93,63.13,65.56,63.13,162.1c0,109.94-26.41,125.06-62.47,154.81c-1.3,1.07-0.54,3.19,1.14,3.19h134.99
	c0.97,0,1.78,0.76,1.82,1.73c0.91,26.95,23.04,48.52,50.22,48.52s49.31-21.57,50.22-48.52c0.03-0.97,0.85-1.73,1.82-1.73h135.03
	c1.68,0,2.44-2.11,1.15-3.19C341.14,287.05,314.53,271.86,314.53,161.9z"/>
<path class="st0" d="M-1231.31,26.57c0-96.53-51.36-130.07-99.99-137.95c-0.9-0.15-1.51-0.93-1.51-1.83c0-0.01,0-0.01,0-0.02
	c0-12.3-10.9-22.1-24.2-22.1s-23.8,9.8-23.8,22.1c0,0.03,0,0.05,0,0.08c0,0.88-0.64,1.63-1.51,1.77
	c-48.73,7.98-100.39,41.61-100.39,138.15c0,109.94-26.41,125.06-62.47,154.81c-1.3,1.07-0.54,3.19,1.14,3.19h134.99
	c0.97,0,1.78,0.76,1.82,1.73c0.91,26.95,23.04,48.52,50.22,48.52s49.31-21.57,50.22-48.52c0.03-0.97,0.85-1.73,1.82-1.73h135.03
	c1.68,0,2.44-2.11,1.15-3.19C-1204.7,151.73-1231.31,136.53-1231.31,26.57z"/>
</svg>
