<svg xmlns="http://www.w3.org/2000/svg" viewBox="0 0 41.4 38.84"><defs><style>.cls-1{fill:none;stroke:#000;stroke-miterlimit:10;stroke-width:5px;}</style></defs><g id="Layer_2" data-name="Layer 2"><g id="Layer_1-2" data-name="Layer 1"><path class="cls-1" d="M32.77,22.65V33.94a2.39,2.39,0,0,1-2.4,2.4H4.9a2.4,2.4,0,0,1-2.4-2.4V8.47a2.41,2.41,0,0,1,2.4-2.4H20.28"/><path d="M18,17.57l-2.87,8.75,8.76-2.87h0L41.07,6.23a1.17,1.17,0,0,0,0-1.63L36.8.34a1.15,1.15,0,0,0-1.63,0L18,17.56Zm.52,6.56-1.19-1.2,1.49-4.55L23,22.64ZM35.35,1.79a1,1,0,0,1,1.33-.16l3.09,3.09a1,1,0,0,1-.16,1.33L38.16,7.5,33.9,3.24ZM32.09,5.05l4.26,4.27L23.88,21.79l-4.27-4.26Z"/></g></g></svg>