<svg xmlns="http://www.w3.org/2000/svg" viewBox="0 0 32 24.66"><defs><style>.cls-1{fill:none;stroke:#000;stroke-linecap:round;stroke-miterlimit:10;stroke-width:2px;}</style></defs><g id="Layer_2" data-name="Layer 2"><g id="Layer_1-2" data-name="Layer 1"><circle cx="8.4" cy="8.01" r="2.83"/><rect class="cls-1" x="1" y="1" width="30" height="22.66" rx="2" transform="translate(32 24.66) rotate(180)"/><path d="M2.38,20.15,10.58,13l.08-.08c.35-.34,3.53-3.36,6.23,0,2.17,2.73,4.59-2.7,5-3.7a1.7,1.7,0,0,1,.19-.35c.53-.72,2.63-3.09,4.94.62A35.24,35.24,0,0,0,30.15,14a1.73,1.73,0,0,1,.43,1.22l-.29,6.14a1.73,1.73,0,0,1-1.4,1.62l-3.49.69a2.43,2.43,0,0,1-.38,0L3.49,23.19a1.76,1.76,0,0,1-1.53-1H2A1.74,1.74,0,0,1,2.38,20.15Z"/></g></g></svg>